<?xml version="1.0" encoding="utf-8"?>
<!-- Generator: Adobe Illustrator 16.0.4, SVG Export Plug-In . SVG Version: 6.00 Build 0)  -->
<!DOCTYPE svg PUBLIC "-//W3C//DTD SVG 1.1//EN" "http://www.w3.org/Graphics/SVG/1.1/DTD/svg11.dtd">
<svg version="1.1" id="Warstwa_1" xmlns="http://www.w3.org/2000/svg" xmlns:xlink="http://www.w3.org/1999/xlink" x="0px" y="0px"
	 width="67.265px" height="83.064px" viewBox="41.466 9.166 67.265 83.064" enable-background="new 41.466 9.166 67.265 83.064"
	 xml:space="preserve">
<polygon fill="#3C3C3B" points="47.266,78.93 52.899,78.93 52.899,13.666 58.966,13.666 58.966,9.166 41.466,9.166 41.466,13.666 
	47.266,13.666 "/>
<path fill="#3C3C3B" d="M73.065,9.166h-0.733h-9.366v69.766h11.566c6.333,0,6.267-6.434,6.267-6.434V46.731
	c0-4.566-4.732-4.999-4.732-4.999s4.767-0.233,4.767-4.233v-22.1v-0.2C80.832,11.899,78.531,9.166,73.065,9.166z M74.699,71.798
	c0,0.968-0.767,1.733-1.733,1.733h-4.633V43.665h4.566c1,0,1.833,0.8,1.833,1.834v26.299H74.699z M74.699,37.832
	c0,0.967-0.767,1.733-1.733,1.733h-4.633V13.532h4.566c1,0,1.833,0.801,1.833,1.834v22.466H74.699z"/>
<polygon fill="#3C3C3B" points="85.632,9.166 93.198,9.166 102.865,69.097 102.865,9.166 108.131,9.166 108.131,78.93 
	100.131,78.93 90.731,20.633 90.731,78.93 85.632,78.93 "/>
<g>
	<path fill="#3C3C3B" d="M51.299,85.531v1.166c0,1.434-0.699,2.2-2.066,2.2h-0.667v3.333h-1.4v-8.899h2.066
		C50.599,83.331,51.299,84.097,51.299,85.531z M48.566,84.597v3h0.667c0.434,0,0.7-0.2,0.7-0.833V85.43
		c0-0.634-0.233-0.833-0.7-0.833H48.566z"/>
	<path fill="#3C3C3B" d="M58.466,85.464c0-1.433,0.733-2.231,2.134-2.231c1.366,0,2.133,0.8,2.133,2.231v4.602
		c0,1.433-0.733,2.232-2.133,2.232c-1.367,0-2.134-0.801-2.134-2.232V85.464z M59.866,90.164c0,0.634,0.267,0.867,0.733,0.867
		c0.433,0,0.732-0.233,0.732-0.867v-4.8c0-0.633-0.267-0.866-0.732-0.866c-0.435,0-0.733,0.233-0.733,0.866V90.164z"/>
	<path fill="#3C3C3B" d="M70.065,83.331h1.399v7.601h2.301v1.267h-3.7V83.331z"/>
	<path fill="#3C3C3B" d="M82.898,83.231c1.367,0,2.065,0.8,2.065,2.231v0.269h-1.333v-0.367c0-0.633-0.267-0.866-0.699-0.866
		c-0.434,0-0.699,0.233-0.699,0.866c0,1.833,2.731,2.167,2.731,4.7c0,1.433-0.698,2.232-2.065,2.232s-2.066-0.801-2.066-2.232
		v-0.533h1.333v0.633c0,0.634,0.268,0.867,0.733,0.867c0.434,0,0.732-0.233,0.732-0.867c0-1.833-2.732-2.166-2.732-4.7
		C80.832,84.031,81.531,83.231,82.898,83.231z"/>
	<path fill="#3C3C3B" d="M94.064,88.664l-0.435,0.8v2.733h-1.398v-8.866h1.398v3.866l1.834-3.866h1.4l-1.934,3.967l1.934,4.934
		H95.43L94.064,88.664z"/>
	<path fill="#3C3C3B" d="M108.73,92.197h-1.399l-0.232-1.6h-1.699l-0.234,1.6h-1.266l1.433-8.866h2.033L108.73,92.197z
		 M105.564,89.397h1.334l-0.667-4.5L105.564,89.397z"/>
</g>
</svg>
